<?xml version="1.0" encoding="utf-8"?>
<!-- Generator: Adobe Illustrator 23.0.3, SVG Export Plug-In . SVG Version: 6.00 Build 0)  -->
<svg version="1.1" id="Calque_1" xmlns="http://www.w3.org/2000/svg" xmlns:xlink="http://www.w3.org/1999/xlink" x="0px" y="0px"
	 viewBox="0 0 283.5 283.5" style="enable-background:new 0 0 283.5 283.5;" xml:space="preserve">
<style type="text/css">
	.st0{fill:#BECEBA;}
</style>
<g>
	<path class="st0" d="M38.3,67.7L22.6,54.1c26.6-30.7,63.5-49.3,104-52.3c40.5-3,79.8,10,110.5,36.6l-13.6,15.7
		C197,31.2,163.1,20,128.1,22.6C93.1,25.1,61.2,41.1,38.3,67.7z"/>
</g>
<g>
	<path class="st0" d="M224.9,42.7l18.5-23.9c3.6-4.7,11-3.7,13.2,1.8l11.5,28l11.5,28c2.2,5.5-2.3,11.3-8.1,10.5l-30-4.1l-30-4.1
		c-5.9-0.8-8.7-7.6-5-12.3L224.9,42.7z"/>
</g>
<g>
	<path class="st0" d="M236.6,108.7c0,0-85.2-3.4-93.6,82.7C143,191.4,229,206.2,236.6,108.7"/>
</g>
<g>
	<path class="st0" d="M155,197.4c-7.5,0-12.4-0.8-13-0.9c-2.7-0.5-4.6-2.9-4.3-5.6c8.8-90,98.1-87.4,99-87.4
		c1.4,0.1,2.7,0.7,3.7,1.7c0.9,1.1,1.4,2.4,1.3,3.9c-2.5,32.2-13.6,56.2-32.9,71.2C190.3,194.7,168.5,197.4,155,197.4z M148.8,186.8
		c10.2,0.7,34.4,0.4,53.8-14.7c15.8-12.3,25.3-31.8,28.3-58C212.9,114.9,157.7,122.8,148.8,186.8z"/>
</g>
<g>
	<path class="st0" d="M130.2,196.5c-14,0-36.5-2.8-55.7-17.7c-20-15.6-31.5-40.5-34.1-74c-0.1-1.1,0.3-2.1,1-2.9
		c0.7-0.8,1.7-1.3,2.8-1.3c0.9,0,93.7-2.7,102.8,90.8c0.2,2-1.2,3.9-3.2,4.2C143.1,195.7,137.9,196.5,130.2,196.5z M48.5,108.4
		c3,29.1,13.3,50.6,30.7,64.2c22,17.2,49.7,16.6,59.5,15.7C129.5,115.6,65.6,108.9,48.5,108.4z"/>
</g>
<g>
	<path class="st0" d="M144.2,276.3c-34.5,0-67.8-11.7-95.1-33.6l13-16.2c27.3,22,61.6,32,96.5,28.3c34.9-3.8,66.2-20.9,88.2-48.2
		l16.2,13c-25.5,31.7-61.8,51.5-102.1,55.9C155.3,276,149.7,276.3,144.2,276.3z"/>
</g>
<g>
	<path class="st0" d="M61.2,238l-17.7,24.6c-3.5,4.8-10.8,4.1-13.2-1.3l-12.4-27.6L5.4,206c-2.4-5.4,1.9-11.4,7.8-10.8l30.1,3
		l30.1,3c5.9,0.6,8.9,7.3,5.5,12.1L61.2,238z"/>
</g>
<g>
	<path class="st0" d="M143,194.4c-0.6,0-1.2-0.2-1.7-0.6L47.7,111c-1.1-0.9-1.2-2.6-0.2-3.7c1-1.1,2.6-1.2,3.7-0.2l93.6,82.7
		c1.1,1,1.2,2.6,0.2,3.7C144.4,194.1,143.7,194.4,143,194.4z"/>
</g>
<g>
	<path class="st0" d="M55.7,143.4c-1,0-1.9-0.5-2.3-1.5c-0.6-1.3-0.1-2.8,1.2-3.5l18-8.8l3.8-17.2c0.3-1.4,1.7-2.3,3.1-2
		c1.4,0.3,2.3,1.7,2,3.1l-4.1,18.4c-0.2,0.8-0.7,1.4-1.4,1.8l-19.1,9.3C56.4,143.3,56,143.4,55.7,143.4z"/>
</g>
<g>
	<path class="st0" d="M63.7,160.5c-0.9,0-1.9-0.5-2.3-1.4c-0.6-1.3-0.1-2.8,1.1-3.5l25.1-12.7l7.9-23.2c0.5-1.4,1.9-2.1,3.3-1.6
		c1.4,0.5,2.1,1.9,1.6,3.3l-8.3,24.2c-0.2,0.6-0.7,1.2-1.3,1.5l-26,13.2C64.5,160.4,64.1,160.5,63.7,160.5z"/>
</g>
<g>
	<path class="st0" d="M77.5,174c-0.9,0-1.7-0.4-2.2-1.2c-0.8-1.2-0.4-2.8,0.8-3.6L102,153l10.4-24.6c0.6-1.3,2.1-1.9,3.4-1.4
		c1.3,0.6,1.9,2.1,1.4,3.4l-10.8,25.3c-0.2,0.5-0.6,0.9-1,1.2l-26.6,16.6C78.5,173.9,78,174,77.5,174z"/>
</g>
<g>
	<path class="st0" d="M95.8,188.3c-0.8,0-1.5-0.3-2-1c-0.9-1.1-0.7-2.8,0.4-3.7l20.7-16.6l10.8-21.3c0.7-1.3,2.2-1.8,3.5-1.1
		c1.3,0.6,1.8,2.2,1.1,3.5l-11,21.8c-0.2,0.3-0.4,0.6-0.7,0.9l-21.1,16.9C97,188.1,96.4,188.3,95.8,188.3z"/>
</g>
</svg>
