<svg xmlns="http://www.w3.org/2000/svg" viewBox="0 0 150.46 32.65"><defs><style>.cls-1{fill:#ff6700;}</style></defs><g id="Calque_2" data-name="Calque 2"><g id="Calque_2-2" data-name="Calque 2"><polygon class="cls-1" points="34.17 0 34.11 13.43 37.51 16.57 34.11 19.69 34.11 27.26 39.2 32.65 50.88 32.65 55.97 27.25 55.97 19.68 59.29 16.58 55.82 13.42 55.82 0 49.56 0 49.56 13.42 53.13 16.56 49.8 19.68 49.8 25 48.1 26.39 41.9 26.39 40.37 25.03 40.37 19.68 43.89 16.56 40.43 13.39 40.43 0 34.17 0"/><polygon class="cls-1" points="0 32.65 0 0 6.26 0 19.95 20.76 19.95 0 26.21 0 26.21 32.65 19.95 32.65 6.25 11.27 6.25 32.65 0 32.65"/><polygon class="cls-1" points="63.86 0 92.14 0 92.14 6.26 81.13 6.27 81.13 32.65 74.86 32.65 74.86 6.27 63.86 6.27 63.86 0"/><polygon class="cls-1" points="99.98 0 99.98 13.42 103.56 16.58 99.98 19.68 99.98 32.65 106.25 32.65 106.25 20.33 114.3 32.65 120.56 32.65 112.51 19.68 115.89 16.58 112.3 13.42 115.57 13.42 120.36 10.02 120.36 3.88 115.53 0 100.42 0 99.98 0"/><polygon class="cls-1" points="128.27 0 136.78 13.07 136.78 32.65 143.03 32.65 143.03 13.07 150.46 0 144.22 0 139.98 7.5 134.54 0 128.27 0"/></g></g></svg>