<svg xmlns="http://www.w3.org/2000/svg" viewBox="0 0 150.46 119.91"><defs><style>.cls-1{fill:#ff6700;}.cls-2{fill:#050227;}</style></defs><g id="Calque_2" data-name="Calque 2"><g id="Calque_2-2" data-name="Calque 2"><polygon class="cls-1" points="105.36 0 57.77 57.84 69.79 57.28 55.98 84.52 67.14 83.8 52.76 119.91 99.74 59.96 89.37 62.12 105.23 32.33 91.46 36.3 105.36 0"/><polygon class="cls-2" points="34.17 50.74 34.11 64.17 37.51 67.31 34.11 70.43 34.11 78 39.2 83.39 50.88 83.39 55.97 77.98 55.97 70.42 59.29 67.32 55.82 64.16 55.82 50.74 49.56 50.74 49.56 64.16 53.13 67.3 49.8 70.42 49.8 75.74 48.1 77.13 41.9 77.13 40.37 75.77 40.37 70.42 43.89 67.3 40.43 64.13 40.43 50.74 34.17 50.74"/><polygon class="cls-2" points="0 83.39 0 50.74 6.26 50.74 19.95 71.5 19.95 50.74 26.21 50.74 26.21 83.39 19.95 83.39 6.25 62.01 6.25 83.39 0 83.39"/><polygon class="cls-2" points="63.86 50.74 92.14 50.74 92.14 57.01 81.13 57.01 81.13 83.39 74.86 83.39 74.86 57.01 63.86 57.01 63.86 50.74"/><polygon class="cls-2" points="99.98 50.74 99.98 64.16 103.56 67.32 99.98 70.42 99.98 83.39 106.25 83.39 106.25 71.07 114.3 83.39 120.56 83.39 112.51 70.42 115.89 67.32 112.3 64.16 115.57 64.16 120.36 60.76 120.36 54.62 115.53 50.74 100.42 50.74 99.98 50.74"/><polygon class="cls-2" points="128.27 50.74 136.78 63.81 136.78 83.39 143.03 83.39 143.03 63.81 150.46 50.74 144.22 50.74 139.98 58.24 134.54 50.74 128.27 50.74"/></g></g></svg>